HIERARCHY
ROOT Hips
{
 OFFSET 0.000000 0.000000 0.000000
 CHANNELS 6 Xposition Yposition Zposition Yrotation Xrotation Zrotation
 JOINT Chest
 {
  OFFSET 0.000000 9.585900 0.002600
  CHANNELS 3 Yrotation Xrotation Zrotation
  JOINT Chest2
  {
   OFFSET 0.000000 9.601200 -0.005300
   CHANNELS 3 Yrotation Xrotation Zrotation
   JOINT Chest3
   {
    OFFSET 0.000000 9.561800 0.000000
    CHANNELS 3 Yrotation Xrotation Zrotation
    JOINT Chest4
    {
     OFFSET 0.000000 9.552100 0.000000
     CHANNELS 3 Yrotation Xrotation Zrotation
     JOINT Neck
     {
      OFFSET 0.000000 14.453000 0.000000
      CHANNELS 3 Yrotation Xrotation Zrotation
      JOINT Head
      {
       OFFSET 0.000000 8.936500 -0.011300
       CHANNELS 3 Yrotation Xrotation Zrotation
       End Site
       {
        OFFSET 0.000000 17.073600 -0.006000
       }
      }
     }
     JOINT RightCollar
     {
      OFFSET -2.921100 9.558500 0.000000
      CHANNELS 3 Yrotation Xrotation Zrotation
      JOINT RightShoulder
      {
       OFFSET -13.519700 0.000000 0.000000
       CHANNELS 3 Yrotation Xrotation Zrotation
       JOINT RightElbow
       {
        OFFSET 0.000000 -29.696600 0.000000
        CHANNELS 3 Yrotation Xrotation Zrotation
        JOINT RightWrist
        {
         OFFSET 0.000000 -24.004700 0.000000
         CHANNELS 3 Yrotation Xrotation Zrotation
         End Site
         {
          OFFSET 0.000000 -17.728500 0.000000
         }
        }
       }
      }
     }
     JOINT LeftCollar
     {
      OFFSET 2.921100 9.558500 0.000000
      CHANNELS 3 Yrotation Xrotation Zrotation
      JOINT LeftShoulder
      {
       OFFSET 13.519700 0.000000 0.000000
       CHANNELS 3 Yrotation Xrotation Zrotation
       JOINT LeftElbow
       {
        OFFSET 0.000000 -29.696600 0.000000
        CHANNELS 3 Yrotation Xrotation Zrotation
        JOINT LeftWrist
        {
         OFFSET 0.000000 -24.004700 0.000000
         CHANNELS 3 Yrotation Xrotation Zrotation
         End Site
         {
          OFFSET 0.000000 -17.728500 0.000000
         }
        }
       }
      }
     }
    }
   }
  }
 }
 JOINT RightHip
 {
  OFFSET -7.771700 -0.012900 -0.001300
  CHANNELS 3 Yrotation Xrotation Zrotation
  JOINT RightKnee
  {
   OFFSET 0.000000 -40.869800 0.001200
   CHANNELS 3 Yrotation Xrotation Zrotation
   JOINT RightAnkle
   {
    OFFSET 0.000000 -39.717900 0.002100
    CHANNELS 3 Yrotation Xrotation Zrotation
    JOINT RightToe
    {
     OFFSET 0.000000 -4.965400 11.033500
     CHANNELS 3 Yrotation Xrotation Zrotation
     End Site
     {
      OFFSET 0.000000 -1.423100 5.872300
     }
    }
   }
  }
 }
 JOINT LeftHip
 {
  OFFSET 7.771700 -0.012900 -0.001300
  CHANNELS 3 Yrotation Xrotation Zrotation
  JOINT LeftKnee
  {
   OFFSET 0.000000 -40.869800 0.001200
   CHANNELS 3 Yrotation Xrotation Zrotation
   JOINT LeftAnkle
   {
    OFFSET 0.000000 -39.717900 0.002100
    CHANNELS 3 Yrotation Xrotation Zrotation
    JOINT LeftToe
    {
     OFFSET 0.000000 -4.965400 11.033500
     CHANNELS 3 Yrotation Xrotation Zrotation
     End Site
     {
      OFFSET 0.000000 -1.423100 5.872300
     }
    }
   }
  }
 }
}
MOTION
Frames: 6
Frame Time: 0.008333
-32.710795 50.465753 20.146799 166.341741 -10.163014 -0.207545 2.793440 8.585779 -0.382313 0.171617 0.494165 -0.062400 0.241298 0.791026 -0.113613 2.528440 8.061279 -0.941180 2.597619 18.624489 0.245661 4.685369 -1.178482 -0.378540 -3.427903 6.095659 -3.858066 -22.739765 -8.335388 -15.161810 -138.550876 -60.387265 172.376517 -0.879817 -6.374427 -34.613748 -0.196663 4.899467 3.330727 23.982269 -10.811195 6.152493 104.407950 -61.539790 -146.397513 3.410732 2.208801 8.808534 -6.107615 -70.085791 -1.359381 -138.092742 82.394120 -137.308957 -4.688656 -16.983597 -0.085465 -0.361406 0.566175 0.003411 -5.144286 -74.896910 21.125489 99.594048 79.204137 94.737844 -16.136693 -23.779546 3.264638 0.001019 -0.622857 0.165866
-32.712798 50.433573 20.117606 166.319168 -10.319843 -0.215901 2.727036 8.636939 -0.383582 0.147268 0.472531 -0.064124 0.255351 0.820682 -0.110672 2.459532 8.097156 -0.935094 2.625200 18.643372 0.235672 4.780174 -1.132509 -0.423562 -3.233757 5.818258 -3.861908 -22.710643 -9.006845 -15.869742 -137.857193 -60.937827 171.124571 -1.128658 -6.124936 -34.851902 -0.423673 4.574413 3.210547 24.021469 -11.506040 7.021969 104.234005 -61.777527 -145.794187 3.464307 2.273113 9.194491 -6.012430 -69.973173 -1.369651 -138.246920 82.305178 -137.523184 -4.707382 -17.007903 -0.025773 -0.361872 0.560855 -0.004465 -5.136132 -74.740194 21.259794 99.975314 79.270461 95.030336 -16.200659 -23.842445 3.284441 0.026816 -0.634599 0.176629
-32.712512 50.402208 20.089905 166.256007 -10.459385 -0.249339 2.695348 8.665730 -0.353335 0.144293 0.475682 -0.063701 0.250192 0.826127 -0.109982 2.403600 8.132523 -0.928560 2.648872 18.657456 0.233732 4.870979 -1.086108 -0.469334 -3.016093 5.564459 -3.837083 -22.665390 -9.673905 -16.605203 -137.362442 -61.444259 170.065816 -1.288464 -5.864691 -35.101698 -0.688064 4.233642 3.014757 24.062187 -12.199536 7.939566 104.185093 -61.995570 -145.350833 3.509347 2.313374 9.488325 -5.974540 -69.871465 -1.289545 -138.350570 82.230767 -137.656502 -4.754711 -17.020612 0.014008 -0.318753 0.553933 -0.014519 -5.182401 -74.600294 21.476546 100.365590 79.326304 95.343422 -16.206879 -23.909585 3.312291 0.068918 -0.618685 0.184583
-32.724445 50.373790 20.055272 166.225265 -10.613205 -0.223627 2.618336 8.709464 -0.387396 0.142009 0.478857 -0.063289 0.246205 0.831542 -0.109244 2.358978 8.165924 -0.920999 2.667163 18.670994 0.238025 4.837855 -1.080661 -0.429639 -2.778493 5.339375 -3.792473 -22.604529 -10.303665 -17.351196 -137.154799 -61.879164 169.282456 -1.357540 -5.651825 -35.346785 -0.982285 3.882150 2.745529 24.071366 -12.870118 8.892739 104.236061 -62.175323 -145.049843 3.548914 2.319158 9.653898 -5.817716 -69.748167 -1.381797 -138.522491 82.164631 -137.907136 -4.743895 -17.087779 0.077608 -0.352728 0.588304 -0.063065 -5.016156 -74.450176 21.390480 100.707312 79.347559 95.622139 -16.190783 -23.955279 3.376783 0.050594 -0.610022 0.139040
-32.732279 50.349201 20.019749 166.164366 -10.772531 -0.228931 2.575831 8.754412 -0.384714 0.140216 0.481946 -0.062840 0.243083 0.836846 -0.108408 2.322767 8.197160 -0.912324 2.679498 18.686358 0.247144 4.833796 -1.061579 -0.399720 -2.524951 5.138346 -3.737630 -22.522532 -10.862335 -18.084129 -137.287400 -62.210088 168.827762 -1.360219 -5.502578 -35.559448 -1.289649 3.539927 2.426395 24.048737 -13.517741 9.845432 104.342053 -62.294393 -144.883881 3.586343 2.299485 9.706473 -5.648451 -69.622998 -1.420913 -138.566691 82.078908 -138.009935 -4.758669 -17.106879 0.144480 -0.368873 0.585052 -0.065789 -4.870284 -74.300835 21.405039 101.100192 79.425404 95.977579 -16.254490 -23.974115 3.400298 0.092530 -0.614145 0.167147
-32.738865 50.328314 19.988220 166.100439 -10.907348 -0.258295 2.541834 8.769905 -0.360297 0.138978 0.484689 -0.062342 0.240871 0.841629 -0.107491 2.296155 8.224286 -0.902336 2.684355 18.702872 0.260546 4.838072 -1.031259 -0.376100 -2.266812 4.957724 -3.676229 -22.421088 -11.330015 -18.781401 -137.723751 -62.415813 168.682437 -1.321806 -5.400955 -35.711887 -1.607738 3.241532 2.095226 24.031670 -14.161373 10.741578 104.456766 -62.339454 -144.840804 3.621737 2.274394 9.675979 -5.500712 -69.511196 -1.434050 -138.557683 82.006542 -138.027278 -4.775916 -17.117464 0.194354 -0.374167 0.580508 -0.064994 -4.772078 -74.181085 21.458344 101.425016 79.496348 96.298053 -16.313545 -23.977197 3.405404 0.158493 -0.617237 0.199598
